<svg viewBox="0 0 960 540" width="960" height="540" xmlns="http://www.w3.org/2000/svg" xmlns:xlink="http://www.w3.org/1999/xlink" overflow="hidden"><g><rect x="0" y="0" width="960" height="540" fill="#FFFFFF"/><path d="M475.5 119.5 475.5 249.625" stroke="#FFC000" stroke-miterlimit="8" stroke-dasharray="4 3" fill="none" fill-rule="evenodd"/><path d="M460 108C460 100.268 466.268 94 474 94L527 94C534.732 94 541 100.268 541 108L541 108C541 115.732 534.732 122 527 122L474 122C466.268 122 460 115.732 460 108Z" fill="#FCB617" fill-rule="evenodd"/><text fill="#FFFFFF" font-family="Malgun Gothic,Malgun Gothic_MSFontService,sans-serif" font-weight="400" font-size="13.3333" transform="translate(472.006 113)">조선개국</text><text fill="#666666" font-family="Malgun Gothic,Malgun Gothic_MSFontService,sans-serif" font-weight="400" font-size="10.6667" transform="translate(492.376 156)">1392</text><text fill="#666666" font-family="Malgun Gothic,Malgun Gothic_MSFontService,sans-serif" font-weight="400" font-size="10.6667" transform="translate(515.709 156)">년</text><text fill="#666666" font-family="Malgun Gothic,Malgun Gothic_MSFontService,sans-serif" font-weight="400" font-size="10.6667" transform="translate(530.209 156)">고려가</text><text fill="#666666" font-family="Malgun Gothic,Malgun Gothic_MSFontService,sans-serif" font-weight="400" font-size="10.6667" transform="translate(566.043 156)">망하자</text><text fill="#666666" font-family="Malgun Gothic,Malgun Gothic_MSFontService,sans-serif" font-weight="400" font-size="10.6667" transform="translate(601.876 156)">향리로</text><text fill="#666666" font-family="Malgun Gothic,Malgun Gothic_MSFontService,sans-serif" font-weight="400" font-size="10.6667" transform="translate(637.71 156)">물러와</text><text fill="#666666" font-family="Malgun Gothic,Malgun Gothic_MSFontService,sans-serif" font-weight="400" font-size="10.6667" transform="translate(492.376 169)">요성산</text><text fill="#666666" font-family="Malgun Gothic,Malgun Gothic_MSFontService,sans-serif" font-weight="400" font-size="10.6667" transform="translate(524.376 169)">(</text><text fill="#666666" font-family="Malgun Gothic,Malgun Gothic_MSFontService,sans-serif" font-weight="400" font-size="10.6667" transform="translate(527.709 169)">邀聖山</text><text fill="#666666" font-family="Malgun Gothic,Malgun Gothic_MSFontService,sans-serif" font-weight="400" font-size="10.6667" transform="translate(559.709 169)">)</text><text fill="#666666" font-family="Malgun Gothic,Malgun Gothic_MSFontService,sans-serif" font-weight="400" font-size="10.6667" transform="translate(566.876 169)">아래</text><text fill="#666666" font-family="Malgun Gothic,Malgun Gothic_MSFontService,sans-serif" font-weight="400" font-size="10.6667" transform="translate(592.043 169)">집을</text><text fill="#666666" font-family="Malgun Gothic,Malgun Gothic_MSFontService,sans-serif" font-weight="400" font-size="10.6667" transform="translate(617.21 169)">얽고</text><text fill="#666666" font-family="Malgun Gothic,Malgun Gothic_MSFontService,sans-serif" font-weight="400" font-size="10.6667" transform="translate(638.543 169)">,</text><text fill="#666666" font-family="Malgun Gothic,Malgun Gothic_MSFontService,sans-serif" font-weight="400" font-size="10.6667" transform="translate(492.376 182)">둔번초당</text><text fill="#666666" font-family="Malgun Gothic,Malgun Gothic_MSFontService,sans-serif" font-weight="400" font-size="10.6667" transform="translate(535.043 182)">(</text><text fill="#666666" font-family="Malgun Gothic,Malgun Gothic_MSFontService,sans-serif" font-weight="400" font-size="10.6667" transform="translate(538.376 182)">遁煩草堂</text><text fill="#666666" font-family="Malgun Gothic,Malgun Gothic_MSFontService,sans-serif" font-weight="400" font-size="10.6667" transform="translate(581.043 182)">).</text><text fill="#666666" font-family="Malgun Gothic,Malgun Gothic_MSFontService,sans-serif" font-weight="400" font-size="10.6667" transform="translate(492.376 195)">둔번공</text><text fill="#666666" font-family="Malgun Gothic,Malgun Gothic_MSFontService,sans-serif" font-weight="400" font-size="10.6667" transform="translate(524.376 195)">(14</text><text fill="#666666" font-family="Malgun Gothic,Malgun Gothic_MSFontService,sans-serif" font-weight="400" font-size="10.6667" transform="translate(539.376 195)">세</text><text fill="#666666" font-family="Malgun Gothic,Malgun Gothic_MSFontService,sans-serif" font-weight="400" font-size="10.6667" transform="translate(550.043 195)">)</text><text fill="#666666" font-family="Malgun Gothic,Malgun Gothic_MSFontService,sans-serif" font-weight="400" font-size="10.6667" transform="translate(553.376 195)">은</text><text fill="#666666" font-family="Malgun Gothic,Malgun Gothic_MSFontService,sans-serif" font-weight="400" font-size="10.6667" transform="translate(567.876 195)">벼슬도</text><text fill="#666666" font-family="Malgun Gothic,Malgun Gothic_MSFontService,sans-serif" font-weight="400" font-size="10.6667" transform="translate(603.71 195)">부자도</text><text fill="#666666" font-family="Malgun Gothic,Malgun Gothic_MSFontService,sans-serif" font-weight="400" font-size="10.6667" transform="translate(639.543 195)">아닌</text><text fill="#666666" font-family="Malgun Gothic,Malgun Gothic_MSFontService,sans-serif" font-weight="400" font-size="10.6667" transform="translate(492.376 208)">후손을</text><text fill="#666666" font-family="Malgun Gothic,Malgun Gothic_MSFontService,sans-serif" font-weight="400" font-size="10.6667" transform="translate(528.209 208)">보전하고</text><text fill="#666666" font-family="Malgun Gothic,Malgun Gothic_MSFontService,sans-serif" font-weight="400" font-size="10.6667" transform="translate(574.71 208)">문필</text><text fill="#666666" font-family="Malgun Gothic,Malgun Gothic_MSFontService,sans-serif" font-weight="400" font-size="10.6667" transform="translate(596.043 208)">(</text><text fill="#666666" font-family="Malgun Gothic,Malgun Gothic_MSFontService,sans-serif" font-weight="400" font-size="10.6667" transform="translate(599.376 208)">文筆</text><text fill="#666666" font-family="Malgun Gothic,Malgun Gothic_MSFontService,sans-serif" font-weight="400" font-size="10.6667" transform="translate(620.71 208)">)</text><text fill="#666666" font-family="Malgun Gothic,Malgun Gothic_MSFontService,sans-serif" font-weight="400" font-size="10.6667" transform="translate(624.043 208)">이</text><text fill="#666666" font-family="Malgun Gothic,Malgun Gothic_MSFontService,sans-serif" font-weight="400" font-size="10.6667" transform="translate(638.543 208)">끊어지지</text><text fill="#666666" font-family="Malgun Gothic,Malgun Gothic_MSFontService,sans-serif" font-weight="400" font-size="10.6667" transform="translate(492.376 220)">않는다는</text><text fill="#666666" font-family="Malgun Gothic,Malgun Gothic_MSFontService,sans-serif" font-weight="400" font-size="10.6667" transform="translate(538.876 220)">중대에</text><text fill="#666666" font-family="Malgun Gothic,Malgun Gothic_MSFontService,sans-serif" font-weight="400" font-size="10.6667" transform="translate(574.71 220)">터를</text><text fill="#666666" font-family="Malgun Gothic,Malgun Gothic_MSFontService,sans-serif" font-weight="400" font-size="10.6667" transform="translate(599.876 220)">잡았습니다</text><text fill="#666666" font-family="Malgun Gothic,Malgun Gothic_MSFontService,sans-serif" font-weight="400" font-size="10.6667" transform="translate(653.21 220)">.</text><path d="M213.5 119.5 213.5 249.625" stroke="#45A4FC" stroke-miterlimit="8" stroke-dasharray="4 3" fill="none" fill-rule="evenodd"/><path d="M198 108C198 100.268 204.268 94 212 94L264 94C271.732 94 278 100.268 278 108L278 108C278 115.732 271.732 122 264 122L212 122C204.268 122 198 115.732 198 108Z" fill="#2EA7E2" fill-rule="evenodd"/><text fill="#FFFFFF" font-family="Malgun Gothic,Malgun Gothic_MSFontService,sans-serif" font-weight="400" font-size="13.3333" transform="translate(208.613 113)">고려후기</text><text fill="#666666" font-family="Malgun Gothic,Malgun Gothic_MSFontService,sans-serif" font-weight="400" font-size="10.6667" transform="translate(230.126 156)">추밀원</text><text fill="#666666" font-family="Malgun Gothic,Malgun Gothic_MSFontService,sans-serif" font-weight="400" font-size="10.6667" transform="translate(265.96 156)">부사</text><text fill="#666666" font-family="Malgun Gothic,Malgun Gothic_MSFontService,sans-serif" font-weight="400" font-size="10.6667" transform="translate(291.126 156)">11</text><text fill="#666666" font-family="Malgun Gothic,Malgun Gothic_MSFontService,sans-serif" font-weight="400" font-size="10.6667" transform="translate(302.793 156)">세</text><text fill="#666666" font-family="Malgun Gothic,Malgun Gothic_MSFontService,sans-serif" font-weight="400" font-size="10.6667" transform="translate(317.293 156)">춘</text><text fill="#666666" font-family="Malgun Gothic,Malgun Gothic_MSFontService,sans-serif" font-weight="400" font-size="10.6667" transform="translate(327.96 156)">(</text><text fill="#666666" font-family="Malgun Gothic,Malgun Gothic_MSFontService,sans-serif" font-weight="400" font-size="10.6667" transform="translate(331.293 156)">椿</text><text fill="#666666" font-family="Malgun Gothic,Malgun Gothic_MSFontService,sans-serif" font-weight="400" font-size="10.6667" transform="translate(341.96 156)">):</text><text fill="#666666" font-family="Malgun Gothic,Malgun Gothic_MSFontService,sans-serif" font-weight="400" font-size="10.6667" transform="translate(351.46 156)">예안</text><text fill="#666666" font-family="Malgun Gothic,Malgun Gothic_MSFontService,sans-serif" font-weight="400" font-size="10.6667" transform="translate(376.626 156)">땅</text><text fill="#666666" font-family="Malgun Gothic,Malgun Gothic_MSFontService,sans-serif" font-weight="400" font-size="10.6667" transform="translate(391.126 156)">비봉산</text><text fill="#666666" font-family="Malgun Gothic,Malgun Gothic_MSFontService,sans-serif" font-weight="400" font-size="10.6667" transform="translate(230.126 169)">아래</text><text fill="#666666" font-family="Malgun Gothic,Malgun Gothic_MSFontService,sans-serif" font-weight="400" font-size="10.6667" transform="translate(255.293 169)">사천</text><text fill="#666666" font-family="Malgun Gothic,Malgun Gothic_MSFontService,sans-serif" font-weight="400" font-size="10.6667" transform="translate(276.626 169)">(</text><text fill="#666666" font-family="Malgun Gothic,Malgun Gothic_MSFontService,sans-serif" font-weight="400" font-size="10.6667" transform="translate(279.96 169)">沙川：현재</text><text fill="#666666" font-family="Malgun Gothic,Malgun Gothic_MSFontService,sans-serif" font-weight="400" font-size="10.6667" transform="translate(337.126 169)">녹전면</text><text fill="#666666" font-family="Malgun Gothic,Malgun Gothic_MSFontService,sans-serif" font-weight="400" font-size="10.6667" transform="translate(372.96 169)">서삼리</text><text fill="#666666" font-family="Malgun Gothic,Malgun Gothic_MSFontService,sans-serif" font-weight="400" font-size="10.6667" transform="translate(408.793 169)">모란</text><text fill="#666666" font-family="Malgun Gothic,Malgun Gothic_MSFontService,sans-serif" font-weight="400" font-size="10.6667" transform="translate(430.126 169)">)</text><text fill="#666666" font-family="Malgun Gothic,Malgun Gothic_MSFontService,sans-serif" font-weight="400" font-size="10.6667" transform="translate(230.126 182)">이란</text><text fill="#666666" font-family="Malgun Gothic,Malgun Gothic_MSFontService,sans-serif" font-weight="400" font-size="10.6667" transform="translate(255.293 182)">마을에</text><text fill="#666666" font-family="Malgun Gothic,Malgun Gothic_MSFontService,sans-serif" font-weight="400" font-size="10.6667" transform="translate(291.126 182)">입향</text><text fill="#666666" font-family="Malgun Gothic,Malgun Gothic_MSFontService,sans-serif" font-weight="400" font-size="10.6667" transform="translate(312.46 182)">.</text><text fill="#666666" font-family="Malgun Gothic,Malgun Gothic_MSFontService,sans-serif" font-weight="400" font-size="10.6667" transform="translate(318.626 182)">평장사공파</text><text fill="#666666" font-family="Malgun Gothic,Malgun Gothic_MSFontService,sans-serif" font-weight="400" font-size="10.6667" transform="translate(375.793 182)">시조</text><text fill="#666666" font-family="Malgun Gothic,Malgun Gothic_MSFontService,sans-serif" font-weight="400" font-size="10.6667" transform="translate(230.126 195)">관향</text><text fill="#666666" font-family="Malgun Gothic,Malgun Gothic_MSFontService,sans-serif" font-weight="400" font-size="10.6667" transform="translate(251.46 195)">:</text><text fill="#666666" font-family="Malgun Gothic,Malgun Gothic_MSFontService,sans-serif" font-weight="400" font-size="10.6667" transform="translate(257.626 195)">예안</text><path d="M606.5 274.5 606.5 404.563" stroke="#7030A0" stroke-miterlimit="8" stroke-dasharray="4 3" fill="none" fill-rule="evenodd"/><path d="M591 414.5C591 407.044 597.044 401 604.5 401L658.5 401C665.956 401 672 407.044 672 414.5L672 414.5C672 421.956 665.956 428 658.5 428L604.5 428C597.044 428 591 421.956 591 414.5Z" fill="#7965B1" fill-rule="evenodd"/><text fill="#FFFFFF" font-family="Arial,Arial_MSFontService,sans-serif" font-weight="400" font-size="13.3333" transform="translate(607.73 419)">15</text><text fill="#FFFFFF" font-family="Arial,Arial_MSFontService,sans-serif" font-weight="400" font-size="13.3333" transform="translate(622.397 419)">-</text><text fill="#FFFFFF" font-family="Arial,Arial_MSFontService,sans-serif" font-weight="400" font-size="13.3333" transform="translate(626.897 419)">20</text><text fill="#FFFFFF" font-family="Malgun Gothic,Malgun Gothic_MSFontService,sans-serif" font-weight="400" font-size="13.3333" transform="translate(641.564 419)">세</text><text font-family="Malgun Gothic,Malgun Gothic_MSFontService,sans-serif" font-weight="400" font-size="10.6667" transform="translate(630.926 310)">예안</text><text font-family="Malgun Gothic,Malgun Gothic_MSFontService,sans-serif" font-weight="400" font-size="10.6667" transform="translate(655.26 310)">향록에</text><text font-family="Malgun Gothic,Malgun Gothic_MSFontService,sans-serif" font-weight="400" font-size="10.6667" transform="translate(690.26 310)">선조들의</text><text font-family="Malgun Gothic,Malgun Gothic_MSFontService,sans-serif" font-weight="400" font-size="10.6667" transform="translate(735.926 310)">이름이</text><text font-family="Malgun Gothic,Malgun Gothic_MSFontService,sans-serif" font-weight="400" font-size="10.6667" transform="translate(770.926 310)">기록됩니다</text><text font-family="Arial,Arial_MSFontService,sans-serif" font-weight="400" font-size="10.6667" transform="translate(824.26 310)">.</text><text font-family="Malgun Gothic,Malgun Gothic_MSFontService,sans-serif" font-weight="400" font-size="10.6667" transform="translate(630.926 323)">문과</text><text font-family="Malgun Gothic,Malgun Gothic_MSFontService,sans-serif" font-weight="400" font-size="10.6667" transform="translate(655.26 323)">방목에</text><text font-family="Malgun Gothic,Malgun Gothic_MSFontService,sans-serif" font-weight="400" font-size="10.6667" transform="translate(690.26 323)">관향을</text><text font-family="Arial,Arial_MSFontService,sans-serif" font-weight="400" font-size="10.6667" transform="translate(725.26 323)">&lt;</text><text font-family="Malgun Gothic,Malgun Gothic_MSFontService,sans-serif" font-weight="400" font-size="10.6667" transform="translate(731.426 323)">예안</text><text font-family="Arial,Arial_MSFontService,sans-serif" font-weight="400" font-size="10.6667" transform="translate(752.76 323)">&gt;</text><text font-family="Malgun Gothic,Malgun Gothic_MSFontService,sans-serif" font-weight="400" font-size="10.6667" transform="translate(758.926 323)">으로</text><text font-family="Malgun Gothic,Malgun Gothic_MSFontService,sans-serif" font-weight="400" font-size="10.6667" transform="translate(783.26 323)">썼습니다</text><text font-family="Arial,Arial_MSFontService,sans-serif" font-weight="400" font-size="10.6667" transform="translate(825.926 323)">.</text><text font-family="Malgun Gothic,Malgun Gothic_MSFontService,sans-serif" font-weight="400" font-size="10.6667" transform="translate(630.926 336)">본격적인</text><text font-family="Malgun Gothic,Malgun Gothic_MSFontService,sans-serif" font-weight="400" font-size="10.6667" transform="translate(676.593 336)">후손의</text><text font-family="Malgun Gothic,Malgun Gothic_MSFontService,sans-serif" font-weight="400" font-size="10.6667" transform="translate(711.593 336)">분기가</text><text font-family="Malgun Gothic,Malgun Gothic_MSFontService,sans-serif" font-weight="400" font-size="10.6667" transform="translate(746.593 336)">시작됩니다</text><text font-family="Arial,Arial_MSFontService,sans-serif" font-weight="400" font-size="10.6667" transform="translate(799.926 336)">.</text><text font-family="Arial,Arial_MSFontService,sans-serif" font-weight="400" font-size="10.6667" transform="translate(630.926 349)">(</text><text font-family="Malgun Gothic,Malgun Gothic_MSFontService,sans-serif" font-weight="400" font-size="10.6667" transform="translate(634.426 349)">결혼의</text><text font-family="Malgun Gothic,Malgun Gothic_MSFontService,sans-serif" font-weight="400" font-size="10.6667" transform="translate(669.426 349)">풍습</text><text font-family="Arial,Arial_MSFontService,sans-serif" font-weight="400" font-size="10.6667" transform="translate(690.76 349)">)</text><text font-family="Arial,Arial_MSFontService,sans-serif" font-weight="400" font-size="10.6667" transform="translate(630.926 362)">19</text><text font-family="Malgun Gothic,Malgun Gothic_MSFontService,sans-serif" font-weight="400" font-size="10.6667" transform="translate(642.926 362)">세</text><text font-family="Arial,Arial_MSFontService,sans-serif" font-weight="400" font-size="10.6667" transform="translate(653.593 362)">(</text><text font-family="Malgun Gothic,Malgun Gothic_MSFontService,sans-serif" font-weight="400" font-size="10.6667" transform="translate(657.093 362)">린</text><text font-family="Arial,Arial_MSFontService,sans-serif" font-weight="400" font-size="10.6667" transform="translate(667.76 362)">)</text><text font-family="Arial,Arial_MSFontService,sans-serif" font-weight="400" font-size="10.6667" transform="translate(671.26 362)">-</text><text font-family="Malgun Gothic,Malgun Gothic_MSFontService,sans-serif" font-weight="400" font-size="10.6667" transform="translate(674.76 362)">평은면</text><text font-family="Malgun Gothic,Malgun Gothic_MSFontService,sans-serif" font-weight="400" font-size="10.6667" transform="translate(709.76 362)">이주</text><path d="M344.5 274.5 344.5 404.563" stroke="#FF0000" stroke-miterlimit="8" stroke-dasharray="4 3" fill="none" fill-rule="evenodd"/><path d="M329 414.5C329 407.044 335.044 401 342.5 401L396.5 401C403.956 401 410 407.044 410 414.5L410 414.5C410 421.956 403.956 428 396.5 428L342.5 428C335.044 428 329 421.956 329 414.5Z" fill="#EC5622" fill-rule="evenodd"/><text fill="#FFFFFF" font-family="Arial,Arial_MSFontService,sans-serif" font-weight="400" font-size="13.3333" transform="translate(344.823 420)">12</text><text fill="#FFFFFF" font-family="Arial,Arial_MSFontService,sans-serif" font-weight="400" font-size="13.3333" transform="translate(359.489 420)">-</text><text fill="#FFFFFF" font-family="Arial,Arial_MSFontService,sans-serif" font-weight="400" font-size="13.3333" transform="translate(363.989 420)">13</text><text fill="#FFFFFF" font-family="Malgun Gothic,Malgun Gothic_MSFontService,sans-serif" font-weight="400" font-size="13.3333" transform="translate(378.656 420)">세</text><text font-family="Malgun Gothic,Malgun Gothic_MSFontService,sans-serif" font-weight="400" font-size="10.6667" transform="translate(361.752 309)">사천</text><text font-family="Arial,Arial_MSFontService,sans-serif" font-weight="400" font-size="10.6667" transform="translate(383.086 309)">(</text><text font-family="Malgun Gothic,Malgun Gothic_MSFontService,sans-serif" font-weight="400" font-size="10.6667" transform="translate(386.586 309)">沙川</text><text font-family="Arial,Arial_MSFontService,sans-serif" font-weight="400" font-size="10.6667" transform="translate(407.919 309)">)</text><text font-family="Malgun Gothic,Malgun Gothic_MSFontService,sans-serif" font-weight="400" font-size="10.6667" transform="translate(411.419 309)">에서</text><text font-family="Malgun Gothic,Malgun Gothic_MSFontService,sans-serif" font-weight="400" font-size="10.6667" transform="translate(435.752 309)">예안면</text><text font-family="Malgun Gothic,Malgun Gothic_MSFontService,sans-serif" font-weight="400" font-size="10.6667" transform="translate(470.752 309)">부포</text><text font-family="Arial,Arial_MSFontService,sans-serif" font-weight="400" font-size="10.6667" transform="translate(492.086 309)">(</text><text font-family="Malgun Gothic,Malgun Gothic_MSFontService,sans-serif" font-weight="400" font-size="10.6667" transform="translate(495.586 309)">浮浦</text><text font-family="Arial,Arial_MSFontService,sans-serif" font-weight="400" font-size="10.6667" transform="translate(516.919 309)">)</text><text font-family="Malgun Gothic,Malgun Gothic_MSFontService,sans-serif" font-weight="400" font-size="10.6667" transform="translate(520.419 309)">로</text><text font-family="Malgun Gothic,Malgun Gothic_MSFontService,sans-serif" font-weight="400" font-size="10.6667" transform="translate(534.086 309)">처음</text><text font-family="Malgun Gothic,Malgun Gothic_MSFontService,sans-serif" font-weight="400" font-size="10.6667" transform="translate(361.752 322)">이주하였으며</text><text font-family="Arial,Arial_MSFontService,sans-serif" font-weight="400" font-size="10.6667" transform="translate(425.752 322)">,</text><text font-family="Malgun Gothic,Malgun Gothic_MSFontService,sans-serif" font-weight="400" font-size="10.6667" transform="translate(431.752 322)">그</text><text font-family="Malgun Gothic,Malgun Gothic_MSFontService,sans-serif" font-weight="400" font-size="10.6667" transform="translate(445.419 322)">뒤</text><text font-family="Malgun Gothic,Malgun Gothic_MSFontService,sans-serif" font-weight="400" font-size="10.6667" transform="translate(459.086 322)">북쪽으로</text><text font-family="Malgun Gothic,Malgun Gothic_MSFontService,sans-serif" font-weight="400" font-size="10.6667" transform="translate(504.752 322)">올라가</text><text font-family="Malgun Gothic,Malgun Gothic_MSFontService,sans-serif" font-weight="400" font-size="10.6667" transform="translate(539.752 322)">도산면</text><text font-family="Malgun Gothic,Malgun Gothic_MSFontService,sans-serif" font-weight="400" font-size="10.6667" transform="translate(361.752 335)">온혜리의</text><text font-family="Malgun Gothic,Malgun Gothic_MSFontService,sans-serif" font-weight="400" font-size="10.6667" transform="translate(407.419 335)">노송정</text><text font-family="Malgun Gothic,Malgun Gothic_MSFontService,sans-serif" font-weight="400" font-size="10.6667" transform="translate(442.419 335)">자리에</text><text font-family="Malgun Gothic,Malgun Gothic_MSFontService,sans-serif" font-weight="400" font-size="10.6667" transform="translate(477.419 335)">터를</text><text font-family="Malgun Gothic,Malgun Gothic_MSFontService,sans-serif" font-weight="400" font-size="10.6667" transform="translate(501.752 335)">잡았으나</text><text font-family="Arial,Arial_MSFontService,sans-serif" font-weight="400" font-size="10.6667" transform="translate(544.419 335)">,</text><text font-family="Malgun Gothic,Malgun Gothic_MSFontService,sans-serif" font-weight="400" font-size="10.6667" transform="translate(361.752 348)">지금의</text><text font-family="Malgun Gothic,Malgun Gothic_MSFontService,sans-serif" font-weight="400" font-size="10.6667" transform="translate(396.752 348)">종택자리로</text><text font-family="Malgun Gothic,Malgun Gothic_MSFontService,sans-serif" font-weight="400" font-size="10.6667" transform="translate(453.086 348)">다시</text><text font-family="Malgun Gothic,Malgun Gothic_MSFontService,sans-serif" font-weight="400" font-size="10.6667" transform="translate(477.419 348)">이주합니다</text><text font-family="Arial,Arial_MSFontService,sans-serif" font-weight="400" font-size="10.6667" transform="translate(530.752 348)">.</text><text font-family="Malgun Gothic,Malgun Gothic_MSFontService,sans-serif" font-weight="400" font-size="10.6667" transform="translate(361.752 373)">그</text><text font-family="Malgun Gothic,Malgun Gothic_MSFontService,sans-serif" font-weight="400" font-size="10.6667" transform="translate(375.419 373)">후</text><text font-family="Malgun Gothic,Malgun Gothic_MSFontService,sans-serif" font-weight="400" font-size="10.6667" transform="translate(389.086 373)">이</text><text font-family="Malgun Gothic,Malgun Gothic_MSFontService,sans-serif" font-weight="400" font-size="10.6667" transform="translate(402.752 373)">터</text><text font-family="Arial,Arial_MSFontService,sans-serif" font-weight="400" font-size="10.6667" transform="translate(413.419 373)">(</text><text font-family="Malgun Gothic,Malgun Gothic_MSFontService,sans-serif" font-weight="400" font-size="10.6667" transform="translate(416.919 373)">노송정</text><text font-family="Arial,Arial_MSFontService,sans-serif" font-weight="400" font-size="10.6667" transform="translate(448.919 373)">)</text><text font-family="Malgun Gothic,Malgun Gothic_MSFontService,sans-serif" font-weight="400" font-size="10.6667" transform="translate(452.419 373)">는</text><text font-family="Malgun Gothic,Malgun Gothic_MSFontService,sans-serif" font-weight="400" font-size="10.6667" transform="translate(466.086 373)">퇴계의</text><text font-family="Malgun Gothic,Malgun Gothic_MSFontService,sans-serif" font-weight="400" font-size="10.6667" transform="translate(501.086 373)">생가가</text><text font-family="Malgun Gothic,Malgun Gothic_MSFontService,sans-serif" font-weight="400" font-size="10.6667" transform="translate(536.086 373)">됩니다</text><text font-family="Arial,Arial_MSFontService,sans-serif" font-weight="400" font-size="10.6667" transform="translate(568.086 373)">.</text><path d="M717.5 122.5 717.5 252.625" stroke="#C00000" stroke-miterlimit="8" stroke-dasharray="4 3" fill="none" fill-rule="evenodd"/><path d="M703 108C703 100.268 709.268 94 717 94L770 94C777.732 94 784 100.268 784 108L784 108C784 115.732 777.732 122 770 122L717 122C709.268 122 703 115.732 703 108Z" fill="#BB2226" fill-rule="evenodd"/><text fill="#FFFFFF" font-family="Malgun Gothic,Malgun Gothic_MSFontService,sans-serif" font-weight="400" font-size="13.3333" transform="translate(716.98 112)">조선중기</text><text font-family="Malgun Gothic,Malgun Gothic_MSFontService,sans-serif" font-weight="400" font-size="10.6667" transform="translate(738.529 160)">아치나리</text><text font-family="Arial,Arial_MSFontService,sans-serif" font-weight="400" font-size="10.6667" transform="translate(781.196 160)">: 21</text><text font-family="Malgun Gothic,Malgun Gothic_MSFontService,sans-serif" font-weight="400" font-size="10.6667" transform="translate(799.196 160)">세</text><text font-family="Arial,Arial_MSFontService,sans-serif" font-weight="400" font-size="10.6667" transform="translate(812.863 160)">(16</text><text font-family="Malgun Gothic,Malgun Gothic_MSFontService,sans-serif" font-weight="400" font-size="10.6667" transform="translate(828.363 160)">세기</text><text font-family="Arial,Arial_MSFontService,sans-serif" font-weight="400" font-size="10.6667" transform="translate(849.696 160)">)</text><text font-family="Malgun Gothic,Malgun Gothic_MSFontService,sans-serif" font-weight="400" font-size="10.6667" transform="translate(738.529 173)">이후</text><text font-family="Arial,Arial_MSFontService,sans-serif" font-weight="400" font-size="10.6667" transform="translate(762.863 173)">500</text><text font-family="Malgun Gothic,Malgun Gothic_MSFontService,sans-serif" font-weight="400" font-size="10.6667" transform="translate(780.863 173)">년의</text><text font-family="Malgun Gothic,Malgun Gothic_MSFontService,sans-serif" font-weight="400" font-size="10.6667" transform="translate(805.196 173)">동족마을</text><path d="M74.5001 262.5 907.312 262.5" stroke="#00B050" stroke-width="3" stroke-miterlimit="8" fill="none" fill-rule="evenodd"/><text fill="#FFFFFF" font-family="Arial,Arial_MSFontService,sans-serif" font-weight="700" font-size="14.6667" transform="translate(112.674 230)">S</text><text fill="#FFFFFF" font-family="Arial,Arial_MSFontService,sans-serif" font-weight="700" font-size="14.6667" transform="translate(112.674 248)">t</text><text fill="#FFFFFF" font-family="Arial,Arial_MSFontService,sans-serif" font-weight="700" font-size="14.6667" transform="translate(112.674 265)">a</text><text fill="#FFFFFF" font-family="Arial,Arial_MSFontService,sans-serif" font-weight="700" font-size="14.6667" transform="translate(112.674 283)">r</text><text fill="#FFFFFF" font-family="Arial,Arial_MSFontService,sans-serif" font-weight="700" font-size="14.6667" transform="translate(112.674 301)">t</text><text fill="#FFFFFF" font-family="Arial,Arial_MSFontService,sans-serif" font-weight="700" font-size="14.6667" transform="translate(878.218 221)">F</text><text fill="#FFFFFF" font-family="Arial,Arial_MSFontService,sans-serif" font-weight="700" font-size="14.6667" transform="translate(878.218 239)">i</text><text fill="#FFFFFF" font-family="Arial,Arial_MSFontService,sans-serif" font-weight="700" font-size="14.6667" transform="translate(878.218 256)">n</text><text fill="#FFFFFF" font-family="Arial,Arial_MSFontService,sans-serif" font-weight="700" font-size="14.6667" transform="translate(878.218 274)">i</text><text fill="#FFFFFF" font-family="Arial,Arial_MSFontService,sans-serif" font-weight="700" font-size="14.6667" transform="translate(878.218 292)">s</text><text fill="#FFFFFF" font-family="Arial,Arial_MSFontService,sans-serif" font-weight="700" font-size="14.6667" transform="translate(878.218 309)">h</text><path d="M199 261C199 253.268 205.044 247 212.5 247 219.956 247 226 253.268 226 261 226 268.732 219.956 275 212.5 275 205.044 275 199 268.732 199 261Z" fill="#2EA7E2" fill-rule="evenodd"/><path d="M206 261.5C206 257.91 208.91 255 212.5 255 216.09 255 219 257.91 219 261.5 219 265.09 216.09 268 212.5 268 208.91 268 206 265.09 206 261.5Z" fill="#FFFFFF" fill-rule="evenodd"/><path d="M330 261C330 253.268 336.044 247 343.5 247 350.956 247 357 253.268 357 261 357 268.732 350.956 275 343.5 275 336.044 275 330 268.732 330 261Z" fill="#EC5622" fill-rule="evenodd"/><path d="M337 261.5C337 257.91 339.91 255 343.5 255 347.09 255 350 257.91 350 261.5 350 265.09 347.09 268 343.5 268 339.91 268 337 265.09 337 261.5Z" fill="#FFFFFF" fill-rule="evenodd"/><path d="M461 261C461 253.268 467.044 247 474.5 247 481.956 247 488 253.268 488 261 488 268.732 481.956 275 474.5 275 467.044 275 461 268.732 461 261Z" fill="#FCB617" fill-rule="evenodd"/><path d="M468 261.5C468 257.91 470.91 255 474.5 255 478.09 255 481 257.91 481 261.5 481 265.09 478.09 268 474.5 268 470.91 268 468 265.09 468 261.5Z" fill="#FFFFFF" fill-rule="evenodd"/><path d="M592 261C592 253.268 598.044 247 605.5 247 612.956 247 619 253.268 619 261 619 268.732 612.956 275 605.5 275 598.044 275 592 268.732 592 261Z" fill="#7965B1" fill-rule="evenodd"/><path d="M599 261.5C599 257.91 601.91 255 605.5 255 609.09 255 612 257.91 612 261.5 612 265.09 609.09 268 605.5 268 601.91 268 599 265.09 599 261.5Z" fill="#FFFFFF" fill-rule="evenodd"/><path d="M703 262C703 254.268 709.268 248 717 248 724.732 248 731 254.268 731 262 731 269.732 724.732 276 717 276 709.268 276 703 269.732 703 262Z" fill="#BB2226" fill-rule="evenodd"/><path d="M710 262.5C710 258.91 713.134 256 717 256 720.866 256 724 258.91 724 262.5 724 266.09 720.866 269 717 269 713.134 269 710 266.09 710 262.5Z" fill="#FFFFFF" fill-rule="evenodd"/></g></svg>